<svg width="22" height="22" viewBox="0 0 22 22" fill="none" xmlns="http://www.w3.org/2000/svg">
<path d="M0 4.74133C0 0.837334 0.837334 0 4.74133 0C8.64533 0 9.48133 0.837334 9.48133 4.74133C9.48133 8.64533 8.64533 9.48133 4.74133 9.48133C0.837334 9.48133 0 8.64533 0 4.74133ZM0 16.592C0 12.688 0.837334 11.852 4.74133 11.852C8.64533 11.852 9.48133 12.688 9.48133 16.592C9.48133 20.496 8.64533 21.3333 4.74133 21.3333C0.837334 21.3333 0 20.496 0 16.592ZM16.592 0C12.688 0 11.852 0.837334 11.852 4.74133C11.852 8.64533 12.688 9.48133 16.592 9.48133C20.496 9.48133 21.3333 8.64533 21.3333 4.74133C21.3333 0.837334 20.496 0 16.592 0ZM11.852 16.592C11.852 12.688 12.688 11.852 16.592 11.852C20.496 11.852 21.3333 12.688 21.3333 16.592C21.3333 20.496 20.496 21.3333 16.592 21.3333C12.688 21.3333 11.852 20.496 11.852 16.592Z" fill="white"/>
</svg>
